<?xml version="1.0" standalone="no"?>
<svg xmlns:xlink="http://www.w3.org/1999/xlink" id="wave" style="transform:rotate(0deg); transition: 0.3s" viewBox="0 0 1440 100" version="1.1" xmlns="http://www.w3.org/2000/svg"><defs><linearGradient id="sw-gradient-0" x1="0" x2="0" y1="1" y2="0"><stop stop-color="rgba(0, 53, 126, 1)" offset="0%"/><stop stop-color="rgba(0, 53, 126, 1)" offset="100%"/></linearGradient></defs><path style="transform:translate(0, 0px); opacity:1" fill="url(#sw-gradient-0)" d="M0,70L48,71.7C96,73,192,77,288,70C384,63,480,47,576,33.3C672,20,768,10,864,5C960,0,1056,0,1152,3.3C1248,7,1344,13,1440,23.3C1536,33,1632,47,1728,43.3C1824,40,1920,20,2016,23.3C2112,27,2208,53,2304,65C2400,77,2496,73,2592,65C2688,57,2784,43,2880,41.7C2976,40,3072,50,3168,58.3C3264,67,3360,73,3456,73.3C3552,73,3648,67,3744,56.7C3840,47,3936,33,4032,23.3C4128,13,4224,7,4320,6.7C4416,7,4512,13,4608,25C4704,37,4800,53,4896,61.7C4992,70,5088,70,5184,73.3C5280,77,5376,83,5472,83.3C5568,83,5664,77,5760,61.7C5856,47,5952,23,6048,15C6144,7,6240,13,6336,13.3C6432,13,6528,7,6624,6.7C6720,7,6816,13,6864,16.7L6912,20L6912,100L6864,100C6816,100,6720,100,6624,100C6528,100,6432,100,6336,100C6240,100,6144,100,6048,100C5952,100,5856,100,5760,100C5664,100,5568,100,5472,100C5376,100,5280,100,5184,100C5088,100,4992,100,4896,100C4800,100,4704,100,4608,100C4512,100,4416,100,4320,100C4224,100,4128,100,4032,100C3936,100,3840,100,3744,100C3648,100,3552,100,3456,100C3360,100,3264,100,3168,100C3072,100,2976,100,2880,100C2784,100,2688,100,2592,100C2496,100,2400,100,2304,100C2208,100,2112,100,2016,100C1920,100,1824,100,1728,100C1632,100,1536,100,1440,100C1344,100,1248,100,1152,100C1056,100,960,100,864,100C768,100,672,100,576,100C480,100,384,100,288,100C192,100,96,100,48,100L0,100Z"/></svg>